<svg xmlns="http://www.w3.org/2000/svg" width="299.875" height="299.931" viewBox="0 0 299.875 299.931">
  <g id="circle" transform="translate(-0.015)">
    <g id="レイヤー_3" data-name="レイヤー 3">
      <path id="パス_37" data-name="パス 37" d="M27.18,235.69l-1.31-1.55a151,151,0,0,0,20.56,24.29L40.1,251Z" fill="#cbecff"/>
      <path id="パス_38" data-name="パス 38" d="M94.14,283.83,81.21,268.56,68.29,253.3,55.37,238,42.45,222.77,29.52,207.51,16.6,192.24,3.68,177l-1.56-1.85A148.472,148.472,0,0,0,7.56,197L9,198.7,21.89,214l12.92,15.26L47.74,244.5l12.92,15.26L73.58,275,80,282.62a150,150,0,0,0,20.7,9Z" fill="#cbecff"/>
      <path id="パス_39" data-name="パス 39" d="M122.32,286.17,109.4,270.91,96.48,255.64,83.56,240.38,70.63,225.11,57.71,209.85,44.79,194.58,31.87,179.32,18.94,164.05,6,148.79.21,141.93a152.91,152.91,0,0,0,0,15.44l11.13,13.14,12.92,15.27L37.16,201l12.92,15.27L63,231.57l12.92,15.27L88.85,262.1l12.92,15.27,12.92,15.26,3.22,3.81A151.25,151.25,0,0,0,133.15,299Z" fill="#cbecff"/>
      <path id="パス_40" data-name="パス 40" d="M150.51,288.51l-12.92-15.26L124.67,258l-12.93-15.26L98.82,227.45,85.9,212.19,73,196.92,60.05,181.66,47.13,166.4,34.21,151.13,21.29,135.87,8.36,120.6,4,115.45q-1.47,6.27-2.4,12.64l12.05,14.24,12.93,15.26L39.5,172.86l12.92,15.26,12.92,15.27,12.93,15.26,12.92,15.27,12.92,15.26L117,264.44l13,15.27L142.88,295l4.15,4.9q6.42.13,12.86-.28Z" fill="#cbecff"/>
      <path id="パス_41" data-name="パス 41" d="M178.7,290.85l-12.92-15.26-12.93-15.26-12.92-15.27L127,229.8l-12.92-15.27-12.93-15.26L88.24,184,75.32,168.74,62.4,153.47,49.47,138.21,36.55,122.94,23.63,107.68,11.19,93Q9,98.33,7.25,103.8L16,114.14l12.92,15.27,12.92,15.26,12.92,15.26L67.69,175.2l12.92,15.26,12.92,15.27L106.45,221l12.93,15.27,12.92,15.26,12.92,15.27,12.92,15.26,12.93,15.27.84,1q5.68-.84,11.32-2.1Z" fill="#cbecff"/>
      <path id="パス_42" data-name="パス 42" d="M194,277.93l-13-15.26L168.12,247.4l-12.93-15.26-12.92-15.27-12.92-15.26-12.92-15.27-12.92-15.26L90.58,155.82,77.66,140.55,64.74,125.29,51.82,110,38.89,94.76,26,79.49l-5.08-6c-1.83,3.08-3.54,6.23-5.13,9.41l2.58,3,12.92,15.27,12.92,15.26L57.14,131.7,70,147l13,15.28,12.92,15.26,12.93,15.27,12.92,15.26,12.92,15.27,12.92,15.26,12.93,15.26,12.92,15.27,12.92,15.26,7.59,9q5.12-1.56,10.14-3.5Z" fill="#cbecff"/>
      <path id="パス_43" data-name="パス 43" d="M222.15,280.27,209.23,265,196.3,249.75l-12.92-15.27-12.92-15.26L157.54,204l-12.93-15.26-12.92-15.27-12.92-15.26-12.92-15.27L92.92,127.63,80,112.36,67.08,97.1,54.16,81.83,41.23,66.57,32.66,56.44q-3.22,4-6.13,8.24L33.6,73,46.53,88.3l12.92,15.26,12.92,15.26,12.92,15.27,12.92,15.26,12.93,15.27,12.92,15.26L137,195.15l12.92,15.26,12.93,15.27,12.92,15.26,12.92,15.27,12.92,15.26,12.09,14.28q4.63-2.17,9.14-4.68Z" fill="#cbecff"/>
      <path id="パス_44" data-name="パス 44" d="M237.41,267.35l-12.92-15.26-12.92-15.27-12.92-15.26-12.93-15.27L172.8,191l-12.92-15.27L147,160.5l-13-15.27L121.11,130l-12.92-15.26L95.27,99.44,82.34,84.18,69.42,68.91,56.5,53.65,46.27,41.56q-3.66,3.49-7,7.17L48.9,60.11,61.79,75.37,74.71,90.64,87.63,105.9l12.93,15.27,12.92,15.26L126.4,151.7,139.32,167l12.93,15.27,12.92,15.26,12.92,15.26L191,228l12.93,15.26,12.92,15.27,12.92,15.26,1.73,2c2.79-1.81,5.53-3.74,8.23-5.76Z" fill="#cbecff"/>
      <path id="パス_45" data-name="パス 45" d="M252.68,254.43l-12.92-15.26L226.83,223.9l-12.92-15.26L201,193.37l-12.92-15.26-12.93-15.27-12.92-15.26L149.3,132.31l-12.92-15.26-12.93-15.27L110.53,86.52,97.61,71.25,84.69,56,71.76,40.72l-10.16-12q-4,2.94-7.88,6.17l10.41,12.3L77.05,62.45,90,77.72,102.9,93l12.92,15.26,12.92,15.27,12.93,15.26L154.59,154l12.92,15.26,12.92,15.27,12.93,15.26,12.92,15.27,12.92,15.26,12.92,15.27,12.93,15.26,2.5,2.95q3.82-3.27,7.38-6.75Z" fill="#cbecff"/>
      <path id="パス_46" data-name="パス 46" d="M79.4,34.26,92.32,49.53l12.92,15.26,12.92,15.27,12.93,15.26L144,110.59l12.92,15.26,12.92,15.27,12.93,15.26,12.92,15.27,12.92,15.26,12.92,15.26,12.93,15.27,12.92,15.26L260.31,248l1.57,1.85q3.4-3.8,6.52-7.78l-.46-.53L255,226.24,242.1,211l-12.92-15.27-12.93-15.26L203.33,165.2l-12.92-15.26-12.92-15.27-12.93-15.26-12.92-15.26L138.72,88.86,125.8,73.6,112.87,58.33,100,43.07,87,27.8l-8.36-9.87q-4.44,2.4-8.75,5.14Z" fill="#cbecff"/>
      <path id="パス_47" data-name="パス 47" d="M94.66,21.34l12.92,15.27,12.93,15.26,12.92,15.26L146.35,82.4l12.92,15.26,12.93,15.27,12.92,15.26L198,143.46l13,15.26L223.89,174l12.92,15.26,12.92,15.27,12.92,15.26,11.8,13.93q2.94-4.38,5.55-8.91l-9.71-11.48-12.93-15.26L244.44,182.8l-12.92-15.26L218.6,152.26,205.67,137l-12.92-15.27-12.92-15.26L166.91,91.2,154,75.94,141.06,60.67,128.14,45.41,115.22,30.14,102.29,14.88l-4.7-5.55q-4.91,1.81-9.71,4Z" fill="#cbecff"/>
      <path id="パス_48" data-name="パス 48" d="M107.82,5.93l2.11,2.49,12.92,15.26L135.77,39l12.92,15.26,12.93,15.27,12.92,15.26L187.46,100l12.92,15.26,12.93,15.27,12.92,15.26,12.92,15.26,12.92,15.27L265,191.59l12.92,15.27,7.12,8.41q2.43-5,4.47-10.2l-4-4.67-12.92-15.27-12.92-15.26L246.78,154.6l-12.92-15.26-12.92-15.27L208,108.81,195.09,93.55,182.17,78.28,169.25,63,156.33,47.75,143.4,32.49,130.48,17.22l-11.86-14Q113.17,4.37,107.82,5.93Z" fill="#cbecff"/>
      <path id="パス_49" data-name="パス 49" d="M138.11,10.76,151,26l13,15.29,12.92,15.26L189.8,71.82l12.93,15.26,12.92,15.27,12.92,15.26,12.92,15.27,12.93,15.26,12.92,15.27,12.92,15.26,12.92,15.27.17.19c1.2-3.9,2.22-7.84,3.1-11.81l-8.56-10.11L275,157l-12.92-15.27-12.92-15.26L236.2,111.15,223.28,95.89,210.36,80.62,197.44,65.36,184.51,50.09,171.59,34.83,158.67,19.56,145.75,4.3,142.2.11Q136.11.43,130,1.22Z" fill="#cbecff"/>
      <path id="パス_50" data-name="パス 50" d="M166.3,13.1l12.92,15.27,12.93,15.26L205.07,58.9,218,74.16l12.92,15.27,12.92,15.26L256.76,120l12.92,15.26,12.92,15.26,12.92,15.27,3.19,3.76q.92-7,1.18-14.08L290.23,144l-12.92-15.26-12.92-15.27L251.47,98.23,238.54,83,225.62,67.7,212.7,52.44,199.78,37.17,186.85,21.91,173.93,6.64l-4.64-5.48q-7-.91-14.08-1.16Z" fill="#cbecff"/>
      <path id="パス_51" data-name="パス 51" d="M194.49,15.44l12.92,15.27L220.33,46l12.92,15.27L246.18,76.5,259.1,91.77,272,107l12.92,15.27,12.93,15.26,1.77,2.1a148.89,148.89,0,0,0-2.37-18.28l-4.69-5.54-12.93-15.27-12.9-15.23L253.81,70,240.89,54.78,228,39.51,215,24.25,202.44,9.36A150.464,150.464,0,0,0,184.8,4Z" fill="#cbecff"/>
      <path id="パス_52" data-name="パス 52" d="M235.6,33.05l12.92,15.27,12.92,15.26,12.92,15.27,12.93,15.26,3.62,4.28a150.58,150.58,0,0,0-66.85-79Z" fill="#cbecff"/>
    </g>
  </g>
</svg>
