<svg xmlns="http://www.w3.org/2000/svg" xmlns:xlink="http://www.w3.org/1999/xlink" width="80" height="80" viewBox="0 0 80 80">
  <defs>
    <clipPath id="clip-path">
      <rect id="長方形_30" data-name="長方形 30" width="80" height="80" transform="translate(1200 1540)" fill="#0078bd" stroke="#707070" stroke-width="1"/>
    </clipPath>
  </defs>
  <g id="line-header-menu" transform="translate(-1200 -1540)" clip-path="url(#clip-path)">
    <g id="menu" transform="translate(1200 1551.111)">
      <path id="パス_32" data-name="パス 32" d="M76.667,38.611H3.333a3.333,3.333,0,1,1,0-6.667H76.667a3.333,3.333,0,1,1,0,6.667Zm0,0" transform="translate(0 -6.389)" fill="#0078bd"/>
      <path id="パス_33" data-name="パス 33" d="M76.667,6.667H3.333A3.333,3.333,0,0,1,3.333,0H76.667a3.333,3.333,0,1,1,0,6.667Zm0,0" transform="translate(0 0)" fill="#0078bd"/>
      <path id="パス_34" data-name="パス 34" d="M76.667,70.555H3.333a3.333,3.333,0,1,1,0-6.667H76.667a3.333,3.333,0,1,1,0,6.667Zm0,0" transform="translate(0 -12.778)" fill="#0078bd"/>
    </g>
  </g>
</svg>
