<svg xmlns="http://www.w3.org/2000/svg" xmlns:xlink="http://www.w3.org/1999/xlink" width="80" height="80" viewBox="0 0 80 80">
  <defs>
    <clipPath id="clip-path">
      <rect id="長方形_29" data-name="長方形 29" width="80" height="80" transform="translate(1035 1540)" fill="#0078bd" stroke="#707070" stroke-width="1"/>
    </clipPath>
  </defs>
  <g id="line-header-tel" transform="translate(-1035 -1540)" clip-path="url(#clip-path)">
    <g id="telephone" transform="translate(1035.151 1540)">
      <path id="パス_36" data-name="パス 36" d="M16.339,53.179A84.871,84.871,0,0,0,44.57,75.292c4.128,1.956,9.648,4.277,15.8,4.675.381.017.746.033,1.127.033A13.082,13.082,0,0,0,71.64,75.64a.363.363,0,0,0,.066-.083,42.709,42.709,0,0,1,3.2-3.315c.779-.746,1.575-1.525,2.337-2.321,3.531-3.68,3.531-8.355-.033-11.919L67.247,48.04a8.064,8.064,0,0,0-5.835-2.685,8.335,8.335,0,0,0-5.9,2.669l-5.935,5.935c-.547-.315-1.111-.6-1.641-.862a20.5,20.5,0,0,1-1.823-.995,62.807,62.807,0,0,1-15-13.659,36.168,36.168,0,0,1-5.073-8.09c1.558-1.409,3.017-2.884,4.426-4.327.5-.514,1.011-1.028,1.525-1.542a8.5,8.5,0,0,0,2.752-5.968,8.431,8.431,0,0,0-2.752-5.968l-4.94-4.94c-.58-.58-1.127-1.144-1.691-1.724C24.263,4.758,23.119,3.6,21.992,2.553A8.264,8.264,0,0,0,16.157,0a8.508,8.508,0,0,0-5.9,2.569l-6.2,6.2a12.738,12.738,0,0,0-3.8,8.156c-.315,3.962.414,8.172,2.3,13.262C5.465,38.06,9.841,45.371,16.339,53.179ZM4.3,17.273A8.768,8.768,0,0,1,6.94,11.637L13.107,5.47a4.464,4.464,0,0,1,3.05-1.409A4.236,4.236,0,0,1,19.141,5.5c1.111,1.028,2.155,2.105,3.282,3.249.564.58,1.144,1.16,1.724,1.757l4.94,4.94a4.5,4.5,0,0,1,1.558,3.1,4.5,4.5,0,0,1-1.558,3.1c-.514.514-1.028,1.044-1.542,1.558C26,24.766,24.561,26.241,22.97,27.65l-.083.083a3.241,3.241,0,0,0-.829,3.68c.017.05.033.083.05.133a39.014,39.014,0,0,0,5.818,9.465,66.289,66.289,0,0,0,15.98,14.554,23.73,23.73,0,0,0,2.188,1.194,20.5,20.5,0,0,1,1.823.995c.066.033.116.066.182.1a3.465,3.465,0,0,0,1.608.414,3.516,3.516,0,0,0,2.47-1.127l6.2-6.2a4.387,4.387,0,0,1,3.034-1.475,4.163,4.163,0,0,1,2.934,1.475l10,9.979c1.989,1.989,1.973,4.144-.05,6.249-.7.746-1.426,1.459-2.2,2.2a47.732,47.732,0,0,0-3.465,3.6,9.1,9.1,0,0,1-7.112,3.017c-.282,0-.58-.017-.862-.033-5.437-.348-10.493-2.47-14.289-4.277A80.628,80.628,0,0,1,19.489,50.626c-6.183-7.443-10.344-14.372-13.1-21.8C4.686,24.269,4.039,20.605,4.3,17.273Z" transform="translate(-0.189 0)" fill="#0078bd"/>
    </g>
  </g>
</svg>
