<svg xmlns="http://www.w3.org/2000/svg" xmlns:xlink="http://www.w3.org/1999/xlink" width="150" height="150" viewBox="0 0 150 150">
  <defs>
    <clipPath id="clip-path">
      <rect id="長方形_35" data-name="長方形 35" width="150" height="150" transform="translate(244 1429)" fill="#ecf8ff" stroke="#707070" stroke-width="1"/>
    </clipPath>
  </defs>
  <g id="sp-circle" transform="translate(-244 -1429)" clip-path="url(#clip-path)">
    <g id="レイヤー_2" data-name="レイヤー 2" transform="translate(244.007 1429)">
      <g id="レイヤー_3" data-name="レイヤー 3">
        <path id="パス_62" data-name="パス 62" d="M13.593,117.872l-.655-.775A75.517,75.517,0,0,0,23.22,129.245l-3.166-3.716Z" fill="#ecf8ff"/>
        <path id="パス_63" data-name="パス 63" d="M47.081,141.947l-6.466-7.637-6.461-7.632-6.461-7.652-6.461-7.617-6.466-7.632L8.3,96.142,1.84,88.52,1.06,87.6A74.253,74.253,0,0,0,3.781,98.523l.72.85,6.446,7.652,6.461,7.632,6.466,7.622,6.461,7.632,6.461,7.622,3.211,3.811a75.016,75.016,0,0,0,10.352,4.5Z" fill="#ecf8ff"/>
        <path id="パス_64" data-name="パス 64" d="M61.174,143.118l-6.461-7.632-6.461-7.637-6.461-7.632-6.466-7.637-6.461-7.632L22.4,97.312l-6.461-7.632L9.472,82.044,3,74.412l-2.9-3.431a76.473,76.473,0,0,0,0,7.722l5.566,6.571,6.461,7.637,6.451,7.612,6.461,7.637,6.461,7.652,6.461,7.637,6.466,7.632,6.461,7.637,6.461,7.632,1.61,1.905a75.642,75.642,0,0,0,7.622,1.28Z" fill="#ecf8ff"/>
        <path id="パス_65" data-name="パス 65" d="M75.272,144.288l-6.461-7.632-6.461-7.627L55.883,121.4l-6.461-7.647-6.461-7.632-6.451-7.637-6.476-7.632L23.57,83.219l-6.461-7.637-6.461-7.632L4.181,60.314,2,57.738Q1.265,60.874.8,64.06l6.026,7.122,6.466,7.632,6.461,7.637,6.461,7.632,6.461,7.637,6.466,7.632,6.461,7.637,6.461,7.632,6.446,7.632,6.5,7.637,6.441,7.647,2.075,2.451q3.211.065,6.431-.14Z" fill="#ecf8ff"/>
        <path id="パス_66" data-name="パス 66" d="M89.37,145.458l-6.461-7.632-6.466-7.632-6.461-7.637-6.466-7.632-6.461-7.637-6.466-7.632L44.13,92.021l-6.461-7.632-6.461-7.637-6.466-7.632-6.461-7.637-6.461-7.632L5.6,46.511q-1.1,2.666-1.97,5.4L8,57.083l6.461,7.637,6.461,7.632,6.461,7.632,6.466,7.637,6.461,7.632,6.461,7.637,6.461,7.637,6.466,7.637,6.461,7.632,6.461,7.637,6.461,7.632,6.466,7.637.42.5q2.841-.42,5.661-1.05Z" fill="#ecf8ff"/>
        <path id="パス_67" data-name="パス 67" d="M97.022,139l-6.5-7.632-6.441-7.637L77.613,116.1l-6.461-7.637-6.461-7.632-6.461-7.637L51.767,85.56,45.3,77.928l-6.461-7.637-6.461-7.632-6.461-7.647-6.466-7.622L13,39.754l-2.541-3c-.915,1.54-1.77,3.116-2.566,4.706l1.29,1.5L15.649,50.6l6.461,7.632,6.466,7.637,6.431,7.652,6.5,7.642,6.461,7.632,6.466,7.637,6.461,7.632L67.36,111.7l6.461,7.632,6.466,7.632L86.75,134.6l6.461,7.632,3.8,4.5q2.561-.78,5.071-1.75Z" fill="#ecf8ff"/>
        <path id="パス_68" data-name="パス 68" d="M111.1,140.167l-6.461-7.637L98.172,124.9l-6.461-7.637-6.461-7.632-6.461-7.612-6.466-7.632L65.86,86.755,59.4,79.123l-6.461-7.637L46.471,63.83l-6.461-7.637-6.461-7.632-6.461-7.637L20.62,33.293l-4.286-5.066q-1.61,2-3.066,4.121L16.8,36.508,23.27,44.16l6.461,7.632,6.461,7.632,6.461,7.637,6.461,7.632,6.466,7.637,6.461,7.632L68.516,97.6l6.461,7.632,6.466,7.637,6.461,7.632,6.461,7.637,6.461,7.632,6.046,7.142q2.316-1.085,4.571-2.341Z" fill="#ecf8ff"/>
        <path id="パス_69" data-name="パス 69" d="M118.732,133.706l-6.461-7.632-6.461-7.637-6.461-7.632-6.466-7.637L86.42,95.522l-6.461-7.637-6.441-7.617-6.5-7.637-6.446-7.617-6.461-7.632-6.461-7.652L41.179,42.1l-6.461-7.637-6.461-7.632L23.14,20.785q-1.83,1.745-3.5,3.586l4.816,5.691L30.9,37.694l6.461,7.637,6.461,7.632L50.292,60.6l6.461,7.632,6.461,7.637,6.461,7.652,6.466,7.637L82.6,98.788l6.461,7.632,6.456,7.607,6.466,7.632,6.461,7.637,6.461,7.632.865,1c1.4-.905,2.766-1.87,4.116-2.881Z" fill="#ecf8ff"/>
        <path id="パス_70" data-name="パス 70" d="M126.369,127.244l-6.461-7.632-6.466-7.637-6.461-7.632-6.456-7.637-6.461-7.632L87.6,81.439l-6.461-7.632L74.667,66.17l-6.461-7.632L61.739,50.9,55.278,43.27l-6.461-7.637-6.461-7.627-6.466-7.642-5.081-6q-2,1.47-3.941,3.086L32.072,23.6l6.461,7.632,6.476,7.637,6.451,7.642,6.461,7.632,6.461,7.637,6.466,7.632,6.461,7.607,6.461,7.632,6.461,7.637L96.7,99.918l6.461,7.637,6.461,7.632,6.461,7.637,6.466,7.632,1.25,1.475q1.91-1.635,3.691-3.376Z" fill="#ecf8ff"/>
        <path id="パス_71" data-name="パス 71" d="M39.709,17.134l6.461,7.637L52.632,32.4l6.461,7.637,6.466,7.632,6.456,7.637,6.461,7.632,6.461,7.637,6.466,7.632,6.461,7.637,6.461,7.632,6.461,7.632,6.466,7.637,6.461,7.632,6.466,7.652.785.925q1.7-1.9,3.261-3.891L134,120.8l-6.471-7.652-6.451-7.622-6.461-7.637-6.466-7.632-6.461-7.637-6.461-7.632L88.765,67.35,82.3,59.719l-6.461-7.632L69.376,44.44l-6.461-7.632-6.466-7.637L50.011,21.54,43.51,13.9,39.329,8.967q-2.221,1.2-4.376,2.571Z" fill="#ecf8ff"/>
        <path id="パス_72" data-name="パス 72" d="M47.341,10.672,53.8,18.309l6.466,7.632,6.461,7.632,6.461,7.637,6.461,7.632,6.466,7.637,6.461,7.632,6.441,7.637,6.5,7.632,6.446,7.642,6.461,7.632,6.461,7.637,6.461,7.632,5.9,6.967q1.47-2.191,2.776-4.456l-4.856-5.741-6.466-7.632-6.461-7.637-6.461-7.632-6.461-7.642-6.466-7.632L96.4,60.879l-6.461-7.632L83.474,45.61l-6.456-7.632-6.471-7.637L64.085,22.71l-6.461-7.637L51.157,7.442,48.806,4.666q-2.456.905-4.856,2Z" fill="#ecf8ff"/>
        <path id="パス_73" data-name="パス 73" d="M53.922,2.966l1.055,1.245,6.461,7.632L67.9,19.5l6.461,7.632,6.466,7.637L87.29,42.4l6.461,7.607,6.461,7.632,6.466,7.637,6.461,7.632,6.461,7.632,6.461,7.637,6.466,7.637,6.461,7.637,3.561,4.206q1.215-2.5,2.236-5.1l-2-2.336-6.461-7.637-6.461-7.632-6.446-7.637-6.461-7.632L110.5,62.049l-6.471-7.632-6.456-7.632-6.461-7.637-6.461-7.642L78.183,23.88l-6.466-7.632L65.255,8.612l-5.931-7Q56.6,2.186,53.922,2.966Z" fill="#ecf8ff"/>
        <path id="パス_74" data-name="パス 74" d="M69.071,5.381,75.517,13l6.5,7.647,6.461,7.632,6.441,7.637,6.466,7.632,6.461,7.637,6.461,7.632,6.461,7.637,6.466,7.632,6.461,7.637,6.461,7.632,6.461,7.637.085.1c.6-1.95,1.11-3.921,1.55-5.906l-4.281-5.056-6.447-7.607-6.461-7.637-6.461-7.632-6.481-7.662-6.461-7.632L105.2,40.319l-6.461-7.632-6.466-7.637-6.461-7.632L79.353,9.782,72.892,2.15,71.116.055q-3.046.16-6.1.555Z" fill="#ecf8ff"/>
        <path id="パス_75" data-name="パス 75" d="M83.169,6.552l6.461,7.637L96.1,21.82l6.461,7.637,6.466,7.632,6.461,7.637,6.461,7.632,6.461,7.657,6.461,7.632,6.461,7.632,6.461,7.637,1.6,1.88q.46-3.5.59-7.042l-4.831-5.736-6.461-7.632-6.461-7.637-6.461-7.622L119.3,41.51l-6.461-7.652-6.461-7.632-6.461-7.637-6.466-7.632L86.985,3.321,84.664.58Q81.164.125,77.623,0Z" fill="#ecf8ff"/>
        <path id="パス_76" data-name="パス 76" d="M97.267,7.722l6.461,7.637,6.461,7.647,6.461,7.637,6.466,7.617L129.58,45.9l6.451,7.617,6.461,7.637,6.466,7.632.885,1.05a74.464,74.464,0,0,0-1.185-9.142l-2.346-2.771-6.466-7.637L133.4,42.665l-6.461-7.657L120.473,27.4l-6.446-7.637-6.5-7.632-6.281-7.447A75.249,75.249,0,0,0,92.421,2Z" fill="#ecf8ff"/>
        <path id="パス_77" data-name="パス 77" d="M117.827,16.529l6.461,7.637L130.75,31.8l6.461,7.637,6.466,7.632,1.81,2.14A75.307,75.307,0,0,0,112.056,9.7Z" fill="#ecf8ff"/>
      </g>
    </g>
  </g>
</svg>
