<svg xmlns="http://www.w3.org/2000/svg" xmlns:xlink="http://www.w3.org/1999/xlink" width="20" height="20" viewBox="0 0 20 20">
  <defs>
    <clipPath id="clip-path">
      <rect id="長方形_39" data-name="長方形 39" width="20" height="20" transform="translate(-0.441)" fill="#0078bd" stroke="#707070" stroke-width="1"/>
    </clipPath>
  </defs>
  <g id="sp-line-header-tel" transform="translate(0.441)" clip-path="url(#clip-path)">
    <g id="telephone" transform="translate(-0.217)">
      <path id="パス_95" data-name="パス 95" d="M4.113,13.295a21.218,21.218,0,0,0,7.058,5.528,10.984,10.984,0,0,0,3.949,1.169c.1,0,.186.008.282.008a3.271,3.271,0,0,0,2.536-1.09.09.09,0,0,0,.017-.021,10.678,10.678,0,0,1,.8-.829c.195-.186.394-.381.584-.58a2,2,0,0,0-.008-2.98L16.84,12.01a2.016,2.016,0,0,0-1.459-.671,2.084,2.084,0,0,0-1.475.667l-1.484,1.484c-.137-.079-.278-.149-.41-.215a5.125,5.125,0,0,1-.456-.249A15.7,15.7,0,0,1,7.806,9.61,9.042,9.042,0,0,1,6.538,7.588c.39-.352.754-.721,1.107-1.082.124-.128.253-.257.381-.385a2.125,2.125,0,0,0,.688-1.492,2.108,2.108,0,0,0-.688-1.492L6.79,1.9c-.145-.145-.282-.286-.423-.431C6.094,1.189,5.808.9,5.526.638A2.066,2.066,0,0,0,4.068,0,2.127,2.127,0,0,0,2.592.642l-1.55,1.55A3.185,3.185,0,0,0,.093,4.231,7.67,7.67,0,0,0,.669,7.547,19.288,19.288,0,0,0,4.113,13.295ZM1.1,4.318a2.192,2.192,0,0,1,.659-1.409L3.305,1.368a1.116,1.116,0,0,1,.763-.352,1.059,1.059,0,0,1,.746.361c.278.257.539.526.821.812.141.145.286.29.431.439L7.3,3.862a1.125,1.125,0,0,1,.39.775,1.125,1.125,0,0,1-.39.775c-.128.128-.257.261-.385.39-.385.39-.746.758-1.144,1.111l-.021.021a.81.81,0,0,0-.207.92c0,.012.008.021.012.033A9.753,9.753,0,0,0,7.01,10.253a16.572,16.572,0,0,0,4,3.639,5.932,5.932,0,0,0,.547.3,5.125,5.125,0,0,1,.456.249l.046.025a.866.866,0,0,0,.4.1.879.879,0,0,0,.617-.282l1.55-1.55a1.1,1.1,0,0,1,.758-.369,1.041,1.041,0,0,1,.734.369l2.5,2.495a1,1,0,0,1-.012,1.562c-.174.186-.356.365-.551.551a11.935,11.935,0,0,0-.866.9A2.275,2.275,0,0,1,15.406,19c-.07,0-.145,0-.216-.008a9.979,9.979,0,0,1-3.572-1.069A20.157,20.157,0,0,1,4.9,12.656a18.462,18.462,0,0,1-3.274-5.45A6.684,6.684,0,0,1,1.1,4.318Z" transform="translate(-0.076 0)" fill="#0078bd"/>
    </g>
  </g>
</svg>
